<?xml version="1.0" standalone="no"?>
<!DOCTYPE svg PUBLIC "-//W3C//DTD SVG 20010904//EN"
 "http://www.w3.org/TR/2001/REC-SVG-20010904/DTD/svg10.dtd">
<svg version="1.0" xmlns="http://www.w3.org/2000/svg"
 width="512.000000pt" height="512.000000pt" viewBox="0 0 512.000000 512.000000"
 preserveAspectRatio="xMidYMid meet">

<g transform="translate(0.000000,512.000000) scale(0.100000,-0.100000)"
fill="#000000" stroke="none">
<path d="M2560 4913 c-19 -2 -87 -10 -150 -19 -745 -102 -1408 -570 -1770
-1247 -104 -195 -184 -422 -230 -649 l-11 -58 -190 0 c-104 0 -189 -2 -189 -5
0 -6 640 -1108 649 -1118 5 -4 159 245 344 555 l336 563 -195 3 -195 2 6 33
c17 80 88 274 134 369 381 781 1255 1184 2099 969 589 -151 1074 -600 1270
-1176 266 -779 -15 -1622 -698 -2096 -165 -115 -364 -206 -572 -264 l-58 -16
0 -279 c0 -154 2 -280 4 -280 3 0 46 9 98 21 751 169 1361 667 1673 1367 357
802 237 1739 -315 2437 -89 113 -298 317 -413 403 -365 274 -784 439 -1226
482 -96 9 -321 11 -401 3z"/>
<path d="M2435 3788 c-3 -7 -4 -359 -3 -783 l3 -770 498 -3 497 -2 0 140 0
140 -360 0 -360 0 0 645 0 645 -135 0 c-99 0 -137 -3 -140 -12z"/>
<path d="M310 1502 c-118 -31 -211 -105 -263 -209 -26 -51 -47 -134 -47 -184
l0 -30 148 3 147 3 6 51 c12 98 80 162 162 151 126 -17 162 -148 82 -294 -48
-87 -79 -125 -317 -377 l-198 -209 0 -103 0 -104 445 0 445 0 0 125 0 125
-247 2 -248 3 81 85 c199 210 320 358 357 440 17 36 21 66 21 150 1 95 -2 111
-28 168 -33 72 -105 143 -176 175 -105 47 -255 59 -370 29z"/>
<path d="M2002 858 l3 -653 153 -3 152 -3 0 356 0 355 31 19 c74 45 168 32
203 -29 20 -33 21 -55 26 -365 l5 -330 143 -3 143 -3 -3 368 c-3 332 -5 373
-22 421 -73 204 -330 262 -486 111 l-40 -39 0 225 0 225 -155 0 -155 0 2 -652z"/>
<path d="M1192 1079 l-260 -416 5 -69 c2 -38 6 -79 9 -91 l4 -23 250 0 249 0
3 -138 3 -137 145 0 145 0 3 138 3 137 64 0 65 0 0 110 0 110 -65 0 -65 0 0
394 0 395 -149 3 -149 3 -260 -416z m258 -174 l0 -205 -125 0 c-69 0 -125 2
-125 4 0 8 241 406 246 406 2 0 4 -92 4 -205z"/>
</g>
</svg>
