<?xml version="1.0" standalone="no"?>
<!DOCTYPE svg PUBLIC "-//W3C//DTD SVG 20010904//EN"
 "http://www.w3.org/TR/2001/REC-SVG-20010904/DTD/svg10.dtd">
<svg version="1.0" xmlns="http://www.w3.org/2000/svg"
 width="512.000000pt" height="512.000000pt" viewBox="0 0 512.000000 512.000000"
 preserveAspectRatio="xMidYMid meet">

<g transform="translate(0.000000,512.000000) scale(0.100000,-0.100000)"
fill="#000000" stroke="none">
<path d="M2380 5114 c-19 -2 -78 -9 -130 -15 -332 -38 -721 -175 -1005 -354
-558 -352 -948 -886 -1105 -1514 -46 -187 -75 -423 -80 -663 0 -17 18 -18 235
-18 l235 0 0 75 0 75 -155 0 -155 0 0 23 c0 63 24 255 46 367 14 69 47 191 74
272 55 161 152 378 170 378 6 0 59 -29 118 -63 59 -35 117 -69 128 -75 20 -11
25 -7 58 49 20 33 36 63 36 67 0 4 -59 41 -130 82 -71 41 -129 79 -130 83 -1
22 168 242 272 353 103 110 291 266 420 348 l27 18 77 -131 c42 -72 81 -131
86 -131 6 0 37 16 69 36 l60 36 -20 31 c-11 18 -47 78 -80 135 l-61 103 123
59 c258 123 552 201 815 217 l102 6 0 -156 0 -157 80 0 80 0 0 157 0 156 103
-6 c180 -11 393 -55 588 -123 99 -34 349 -147 349 -158 0 -2 -34 -62 -75 -131
-41 -70 -75 -130 -75 -134 0 -7 98 -67 118 -73 6 -2 47 57 90 130 l78 132 82
-56 c115 -79 283 -225 377 -328 89 -97 255 -314 255 -332 0 -7 -58 -47 -130
-89 -71 -42 -130 -78 -130 -80 0 -2 16 -31 36 -65 24 -40 42 -59 51 -56 7 3
67 37 133 76 65 38 122 70 125 70 14 0 118 -238 165 -378 27 -81 60 -203 74
-272 22 -112 46 -304 46 -367 l0 -23 -155 0 -155 0 0 -75 0 -75 155 0 155 0 0
-28 c0 -63 -32 -294 -56 -401 -14 -64 -43 -168 -64 -232 -46 -138 -148 -369
-166 -376 -7 -3 -69 28 -136 67 -68 40 -126 74 -129 76 -7 4 -79 -111 -79
-124 0 -4 56 -40 125 -80 69 -41 127 -78 130 -82 6 -10 -64 -114 -149 -220
-87 -109 -290 -309 -294 -289 -1 8 1 49 6 90 5 41 9 75 8 76 -1 1 -35 5 -77 9
l-75 6 -22 -203 c-13 -112 -22 -213 -22 -224 0 -20 13 -22 216 -44 121 -13
219 -20 224 -15 4 5 10 39 14 75 l6 67 -62 7 c-132 13 -133 1 10 143 140 139
229 246 326 392 302 454 442 967 415 1525 -20 393 -138 786 -337 1122 -391
660 -1043 1096 -1807 1209 -96 14 -453 27 -525 18z"/>
<path d="M2480 3620 l0 -689 -50 -22 c-66 -28 -143 -112 -165 -180 -24 -70
-18 -179 13 -239 33 -63 96 -125 156 -152 72 -32 181 -31 253 1 62 28 136 103
163 166 l19 45 456 0 455 0 0 75 0 75 -458 0 -459 0 -12 39 c-16 56 -99 144
-161 170 l-50 22 0 689 0 690 -80 0 -80 0 0 -690z m165 -861 c17 -10 41 -36
53 -57 60 -107 -15 -234 -138 -234 -123 0 -198 127 -138 233 46 83 141 107
223 58z"/>
<path d="M819 2450 c-225 -21 -450 -97 -609 -203 -53 -35 -110 -87 -110 -100
0 -4 71 -90 157 -190 86 -100 158 -184 160 -186 1 -2 33 25 70 60 137 129 225
170 363 171 158 0 250 -70 250 -192 0 -96 -48 -136 -365 -310 -238 -130 -327
-191 -426 -289 -88 -88 -142 -174 -175 -280 -20 -65 -44 -225 -44 -298 l0 -63
805 0 805 0 0 235 0 235 -437 0 c-435 0 -436 0 -418 20 26 29 173 127 300 200
387 224 499 353 520 600 21 235 -111 441 -340 534 -124 50 -330 73 -506 56z"/>
<path d="M2427 1742 l-527 -677 2 -230 3 -230 443 -3 442 -2 0 -220 0 -220
260 0 260 0 0 220 0 220 145 0 145 0 0 235 0 235 -145 0 -145 0 0 675 0 675
-177 0 -178 0 -528 -678z m430 -669 c-2 -2 -102 -2 -222 -1 l-218 3 219 285
219 285 3 -284 c1 -156 1 -286 -1 -288z"/>
<path d="M845 453 c-91 -20 -137 -54 -171 -128 -43 -92 -27 -183 47 -256 79
-80 184 -88 281 -22 78 53 111 186 69 279 -24 52 -94 112 -140 120 -20 3 -43
7 -51 9 -8 1 -24 0 -35 -2z m90 -109 c25 -16 55 -80 55 -117 0 -12 -9 -41 -20
-65 -31 -68 -101 -87 -166 -45 -64 41 -59 180 8 227 29 20 92 20 123 0z"/>
<path d="M2435 449 c-80 -19 -129 -100 -105 -173 14 -44 36 -59 131 -95 77
-28 103 -51 81 -73 -19 -19 -93 -13 -148 11 -26 12 -48 20 -49 19 -9 -11 -35
-69 -35 -78 0 -6 21 -21 48 -33 64 -29 193 -31 238 -3 40 24 64 65 64 110 0
76 -31 106 -143 140 -72 22 -95 41 -84 70 8 21 91 22 127 1 37 -21 44 -19 68
24 22 39 22 40 3 50 -22 12 -130 42 -146 40 -5 -1 -28 -5 -50 -10z"/>
<path d="M110 225 l0 -225 50 0 50 0 0 95 0 95 90 0 89 0 3 -92 3 -93 48 -3
47 -3 0 225 0 226 -50 0 -50 0 0 -85 0 -85 -90 0 -90 0 0 85 0 85 -50 0 -50 0
0 -225z"/>
<path d="M1242 303 c4 -122 8 -156 25 -195 68 -150 304 -138 357 19 12 34 16
85 16 185 l0 138 -49 0 -49 0 -4 -137 c-4 -152 -14 -189 -61 -211 -22 -11 -35
-11 -63 -2 -54 18 -64 53 -64 215 l0 135 -56 0 -56 0 4 -147z"/>
<path d="M1820 225 l0 -226 48 3 47 3 3 73 3 72 33 0 c30 0 37 -6 77 -72 l44
-73 53 -3 c34 -2 52 1 52 8 0 6 -19 43 -42 82 -34 58 -39 73 -30 87 42 57 52
80 52 119 0 49 -17 86 -55 122 -25 24 -34 25 -156 28 l-129 4 0 -227z m222
118 c22 -20 23 -51 2 -81 -12 -18 -25 -22 -70 -22 l-54 0 0 60 0 60 52 0 c34
0 58 -6 70 -17z"/>
</g>
</svg>
