<svg version="1.1" id="Layer_1" xmlns="http://www.w3.org/2000/svg" xmlns:xlink="http://www.w3.org/1999/xlink" x="0px" y="0px"
	 width="100%" viewBox="0 0 512 512" enable-background="new 0 0 512 512" xml:space="preserve">
<path fill="#F15249" opacity="1.000000" stroke="none" 
	d="
M1.000000,279.000000 
	C1.000000,264.645782 1.000000,250.291550 1.376017,235.266449 
	C2.817546,226.651413 3.810853,218.696732 4.962184,210.765015 
	C8.340034,187.494400 16.077656,165.558350 26.271042,144.530426 
	C35.932976,124.598846 48.096085,106.255173 62.801880,89.551498 
	C76.387970,74.119644 91.181763,60.076992 107.842941,48.086174 
	C126.200211,34.874702 146.048691,24.237196 167.269363,16.450558 
	C185.185318,9.876544 203.603851,4.979762 222.685303,2.959473 
	C226.813080,2.522434 230.896271,1.664217 235.000000,0.999999 
	C249.354233,1.000000 263.708466,1.000000 278.733551,1.376028 
	C287.348541,2.817555 295.303162,3.810857 303.234833,4.962163 
	C326.505493,8.339975 348.441528,16.077679 369.469513,26.270988 
	C389.401154,35.932865 407.744781,48.096066 424.448456,62.801888 
	C439.880310,76.387985 453.923004,91.181747 465.913818,107.842957 
	C479.125275,126.200233 489.762848,146.048676 497.549469,167.269348 
	C504.123444,185.185318 509.020172,203.603867 511.040436,222.685303 
	C511.477478,226.813095 512.335754,230.896271 513.000000,235.000000 
	C513.000000,249.354233 513.000000,263.708466 512.627319,278.728027 
	C511.817017,282.630157 511.379333,285.866943 510.639343,288.958008 
	C508.899109,287.424774 507.439209,286.059235 506.026428,284.646576 
	C466.439911,245.065506 426.868011,205.469788 387.239166,165.931152 
	C385.686035,164.381546 383.596680,163.369354 381.813721,162.069885 
	C381.870270,162.033020 381.946564,162.144379 381.892456,161.862610 
	C381.522247,161.395309 381.206146,161.209778 380.935028,161.021423 
	C380.979980,161.018600 380.982971,161.108643 380.905731,160.882401 
	C380.664093,160.367432 380.428345,160.159592 379.952026,159.737701 
	C372.383087,152.279480 364.925140,145.175232 357.596100,137.940414 
	C343.267334,123.795868 325.653809,123.810471 311.309326,138.119598 
	C294.676575,154.711334 278.079651,171.339020 261.459412,187.943314 
	C260.212341,189.189194 258.903107,190.372818 257.100891,192.079559 
	C255.621948,190.332718 254.526215,188.850739 253.244202,187.552734 
	C236.501129,170.600662 219.792145,153.614197 202.949890,136.761002 
	C189.303909,123.106110 171.443665,123.122993 157.734573,136.647339 
	C151.210922,143.083069 144.758926,149.591553 138.289307,156.081848 
	C123.740242,170.677414 123.669075,188.206543 138.137634,202.708786 
	C154.848297,219.458359 171.595200,236.171783 188.317902,252.909348 
	C189.585892,254.178482 190.786377,255.515076 192.199066,257.011902 
	C190.762695,258.524231 189.551773,259.856720 188.280533,261.128967 
	C171.321533,278.101532 154.309067,295.020905 137.403030,312.046021 
	C124.037186,325.506012 124.040314,343.409882 137.268829,356.893616 
	C142.153992,361.873047 147.069229,366.822968 151.674118,371.842804 
	C152.118591,373.366272 152.543350,375.148804 153.646439,376.254730 
	C195.614578,418.330872 237.726257,460.264343 279.567322,502.466125 
	C284.983734,507.929260 289.986542,512.010315 298.054474,509.039215 
	C299.221741,508.609314 300.685944,508.985657 301.830200,509.354279 
	C297.970520,510.160339 294.282867,510.528778 290.619080,511.061493 
	C286.734222,511.626373 282.872070,512.347229 279.000000,513.000000 
	C264.645782,513.000000 250.291550,513.000000 235.266479,512.624023 
	C226.651520,511.182495 218.696945,510.189117 210.765289,509.037842 
	C187.494629,505.660065 165.558533,497.922424 144.530594,487.729065 
	C124.598999,478.067139 106.255341,465.904053 89.551674,451.198242 
	C74.119812,437.612122 60.077034,422.818390 48.086224,406.157196 
	C34.874783,387.799927 24.237181,367.951416 16.450583,346.730713 
	C9.876596,328.814728 4.979760,310.396179 2.959476,291.314697 
	C2.522439,287.186920 1.664219,283.103729 1.000000,279.000000 
z"/>
<path fill="#FFFFFF" opacity="1.000000" stroke="none" 
	d="
M234.531342,0.999999 
	C230.896271,1.664217 226.813080,2.522434 222.685303,2.959473 
	C203.603851,4.979762 185.185318,9.876544 167.269363,16.450558 
	C146.048691,24.237196 126.200211,34.874702 107.842941,48.086174 
	C91.181763,60.076992 76.387970,74.119644 62.801880,89.551498 
	C48.096085,106.255173 35.932976,124.598846 26.271042,144.530426 
	C16.077656,165.558350 8.340034,187.494400 4.962184,210.765015 
	C3.810853,218.696732 2.817546,226.651413 1.376017,234.797791 
	C1.000000,157.072952 1.000000,79.145912 1.000000,1.000000 
	C78.687424,1.000000 156.375061,1.000000 234.531342,0.999999 
z"/>
<path fill="#FFFFFF" opacity="1.000000" stroke="none" 
	d="
M513.000000,234.531342 
	C512.335754,230.896271 511.477478,226.813095 511.040436,222.685303 
	C509.020172,203.603867 504.123444,185.185318 497.549469,167.269348 
	C489.762848,146.048676 479.125275,126.200233 465.913818,107.842957 
	C453.923004,91.181747 439.880310,76.387985 424.448456,62.801888 
	C407.744781,48.096066 389.401154,35.932865 369.469513,26.270988 
	C348.441528,16.077679 326.505493,8.339975 303.234833,4.962163 
	C295.303162,3.810857 287.348541,2.817555 279.202209,1.376028 
	C356.927032,1.000000 434.854095,1.000000 513.000000,1.000000 
	C513.000000,78.687424 513.000000,156.375061 513.000000,234.531342 
z"/>
<path fill="#FFFFFF" opacity="1.000000" stroke="none" 
	d="
M1.000000,279.468658 
	C1.664219,283.103729 2.522439,287.186920 2.959476,291.314697 
	C4.979760,310.396179 9.876596,328.814728 16.450583,346.730713 
	C24.237181,367.951416 34.874783,387.799927 48.086224,406.157196 
	C60.077034,422.818390 74.119812,437.612122 89.551674,451.198242 
	C106.255341,465.904053 124.598999,478.067139 144.530594,487.729065 
	C165.558533,497.922424 187.494629,505.660065 210.765289,509.037842 
	C218.696945,510.189117 226.651520,511.182495 234.797821,512.624023 
	C157.072968,513.000000 79.145927,513.000000 1.000000,513.000000 
	C1.000000,435.312561 1.000000,357.624939 1.000000,279.468658 
z"/>
<path fill="#FFFFFF" opacity="1.000000" stroke="none" 
	d="
M279.468658,513.000000 
	C282.872070,512.347229 286.734222,511.626373 290.619080,511.061493 
	C294.282867,510.528778 297.970520,510.160339 301.815002,509.355225 
	C301.982300,508.990845 301.976410,509.019867 302.390137,509.019897 
	C304.568207,508.662720 306.332489,508.305573 308.276733,507.908020 
	C308.456665,507.867676 308.807922,507.755188 309.175049,507.855896 
	C310.394623,507.629059 311.247040,507.301483 312.511841,506.914673 
	C313.756104,506.832275 314.624420,506.957611 315.414612,506.764130 
	C333.594971,502.312439 351.248138,496.326202 368.098450,488.142822 
	C388.621765,478.175598 408.014465,466.330566 424.590820,450.557007 
	C436.664185,439.068329 448.747772,427.384888 459.261658,414.510162 
	C475.756866,394.311127 488.565125,371.598389 497.063110,346.895630 
	C502.076874,332.321198 505.080048,317.055054 509.333374,301.908813 
	C509.704468,300.418243 509.729553,299.118866 509.810364,297.640808 
	C509.866058,297.462128 509.948334,297.096924 510.314697,296.898010 
	C510.723053,294.769623 510.765076,292.840149 510.851044,290.610840 
	C510.910522,289.908539 510.926056,289.506134 510.941620,289.103729 
	C511.379333,285.866943 511.817017,282.630157 512.627319,279.196686 
	C513.000000,356.927032 513.000000,434.854095 513.000000,513.000000 
	C435.312561,513.000000 357.624939,513.000000 279.468658,513.000000 
z"/>
<path fill="#AE0F0F" opacity="1.000000" stroke="none" 
	d="
M510.639282,288.958008 
	C510.926056,289.506134 510.910522,289.908539 510.638458,290.938965 
	C510.237396,293.410309 510.092865,295.253601 509.948364,297.096924 
	C509.948334,297.096924 509.866058,297.462128 509.587769,297.941986 
	C509.202148,299.647888 509.094788,300.873962 508.987427,302.100006 
	C505.080048,317.055054 502.076874,332.321198 497.063110,346.895630 
	C488.565125,371.598389 475.756866,394.311127 459.261658,414.510162 
	C448.747772,427.384888 436.664185,439.068329 424.590820,450.557007 
	C408.014465,466.330566 388.621765,478.175598 368.098450,488.142822 
	C351.248138,496.326202 333.594971,502.312439 315.414612,506.764130 
	C314.624420,506.957611 313.756104,506.832275 312.162354,506.882965 
	C310.536285,507.192047 309.672089,507.473602 308.807922,507.755188 
	C308.807922,507.755188 308.456665,507.867676 307.865601,507.856323 
	C305.508514,508.236633 303.742462,508.628265 301.976410,509.019867 
	C301.976410,509.019867 301.982300,508.990845 301.997498,508.989868 
	C300.685944,508.985657 299.221741,508.609314 298.054474,509.039215 
	C289.986542,512.010315 284.983734,507.929260 279.567322,502.466125 
	C237.726257,460.264343 195.614578,418.330872 153.646439,376.254730 
	C152.543350,375.148804 152.118591,373.366272 151.967041,372.039185 
	C153.374222,373.004822 154.244827,373.784912 155.001587,374.663086 
	C168.682190,390.538605 189.789841,390.025238 204.152634,374.727417 
	C220.066071,357.777954 237.057266,341.839142 253.636841,325.518860 
	C254.846191,324.328430 256.523956,323.613800 258.103882,323.009277 
	C276.274109,341.294312 294.233887,359.340210 312.404724,377.170990 
	C325.759125,390.275482 343.294983,390.165527 356.757782,377.104156 
	C363.803375,370.268646 370.760162,363.335022 377.578705,356.273499 
	C390.916809,342.460175 390.760223,324.636169 377.227386,311.030304 
	C368.191986,301.946106 359.066071,292.951233 349.923737,283.974365 
	C341.037872,275.249329 332.079468,266.598267 323.140869,257.572693 
	C324.282623,255.862381 325.339539,254.396454 326.604858,253.140457 
	C343.126190,236.741119 359.714844,220.409332 376.182434,203.956314 
	C378.860382,201.280731 381.513641,198.371567 383.355865,195.106339 
	C389.691193,183.877380 388.108429,172.827667 381.757202,162.106735 
	C383.596680,163.369354 385.686035,164.381546 387.239166,165.931152 
	C426.868011,205.469788 466.439911,245.065506 506.026428,284.646576 
	C507.439209,286.059235 508.899109,287.424774 510.639282,288.958008 
z"/>
<path fill="#FFFFFF" opacity="1.000000" stroke="none" 
	d="
M381.813721,162.069885 
	C388.108429,172.827667 389.691193,183.877380 383.355865,195.106339 
	C381.513641,198.371567 378.860382,201.280731 376.182434,203.956314 
	C359.714844,220.409332 343.126190,236.741119 326.604858,253.140457 
	C325.339539,254.396454 324.282623,255.862381 322.789612,257.617096 
	C321.386688,258.769073 320.195374,259.406403 319.278046,260.319092 
	C299.621704,279.877228 279.986786,299.456940 260.391113,319.075806 
	C259.390045,320.078094 258.777405,321.468323 257.983917,322.677948 
	C256.523956,323.613800 254.846191,324.328430 253.636841,325.518860 
	C237.057266,341.839142 220.066071,357.777954 204.152634,374.727417 
	C189.789841,390.025238 168.682190,390.538605 155.001587,374.663086 
	C154.244827,373.784912 153.374222,373.004822 152.263672,371.982727 
	C147.069229,366.822968 142.153992,361.873047 137.268829,356.893616 
	C124.040314,343.409882 124.037186,325.506012 137.403030,312.046021 
	C154.309067,295.020905 171.321533,278.101532 188.280533,261.128967 
	C189.551773,259.856720 190.762695,258.524231 192.199066,257.011902 
	C190.786377,255.515076 189.585892,254.178482 188.317902,252.909348 
	C171.595200,236.171783 154.848297,219.458359 138.137634,202.708786 
	C123.669075,188.206543 123.740242,170.677414 138.289307,156.081848 
	C144.758926,149.591553 151.210922,143.083069 157.734573,136.647339 
	C171.443665,123.122993 189.303909,123.106110 202.949890,136.761002 
	C219.792145,153.614197 236.501129,170.600662 253.244202,187.552734 
	C254.526215,188.850739 255.621948,190.332718 257.100891,192.079559 
	C258.903107,190.372818 260.212341,189.189194 261.459412,187.943314 
	C278.079651,171.339020 294.676575,154.711334 311.309326,138.119598 
	C325.653809,123.810471 343.267334,123.795868 357.596100,137.940414 
	C364.925140,145.175232 372.383087,152.279480 379.927826,160.017090 
	C380.376251,160.763824 380.679596,160.936234 380.982971,161.108643 
	C380.982971,161.108643 380.979980,161.018600 380.964172,161.328094 
	C381.281067,161.806519 381.613831,161.975449 381.946564,162.144379 
	C381.946564,162.144379 381.870270,162.033020 381.813721,162.069885 
z"/>
<path fill="#AE0F0F" opacity="1.000000" stroke="none" 
	d="
M380.905731,160.882401 
	C380.679596,160.936234 380.376251,160.763824 380.097076,160.312027 
	C380.428345,160.159592 380.664093,160.367432 380.905731,160.882401 
z"/>
<path fill="#AE0F0F" opacity="1.000000" stroke="none" 
	d="
M381.892456,161.862610 
	C381.613831,161.975449 381.281067,161.806519 380.919189,161.330917 
	C381.206146,161.209778 381.522247,161.395309 381.892456,161.862610 
z"/>
<path fill="#F15249" opacity="1.000000" stroke="none" 
	d="
M510.314697,296.898010 
	C510.092865,295.253601 510.237396,293.410309 510.594513,291.238831 
	C510.765076,292.840149 510.723053,294.769623 510.314697,296.898010 
z"/>
<path fill="#F15249" opacity="1.000000" stroke="none" 
	d="
M302.390137,509.019897 
	C303.742462,508.628265 305.508514,508.236633 307.685669,507.896698 
	C306.332489,508.305573 304.568207,508.662720 302.390137,509.019897 
z"/>
<path fill="#F15249" opacity="1.000000" stroke="none" 
	d="
M509.333374,301.908813 
	C509.094788,300.873962 509.202148,299.647888 509.532043,298.120667 
	C509.729553,299.118866 509.704468,300.418243 509.333374,301.908813 
z"/>
<path fill="#F15249" opacity="1.000000" stroke="none" 
	d="
M309.175049,507.855896 
	C309.672089,507.473602 310.536285,507.192047 311.750000,506.942200 
	C311.247040,507.301483 310.394623,507.629059 309.175049,507.855896 
z"/>
<path fill="#D6D5D5" opacity="1.000000" stroke="none" 
	d="
M258.103882,323.009277 
	C258.777405,321.468323 259.390045,320.078094 260.391113,319.075806 
	C279.986786,299.456940 299.621704,279.877228 319.278046,260.319092 
	C320.195374,259.406403 321.386688,258.769073 322.801636,257.959106 
	C332.079468,266.598267 341.037872,275.249329 349.923737,283.974365 
	C359.066071,292.951233 368.191986,301.946106 377.227386,311.030304 
	C390.760223,324.636169 390.916809,342.460175 377.578705,356.273499 
	C370.760162,363.335022 363.803375,370.268646 356.757782,377.104156 
	C343.294983,390.165527 325.759125,390.275482 312.404724,377.170990 
	C294.233887,359.340210 276.274109,341.294312 258.103882,323.009277 
z"/>
</svg>