<svg version="1.1" id="Layer_1" xmlns="http://www.w3.org/2000/svg" xmlns:xlink="http://www.w3.org/1999/xlink" x="0px" y="0px"
	 width="100%" viewBox="0 0 512 512" enable-background="new 0 0 512 512" xml:space="preserve">
<path fill="#FFFFFF" opacity="1.000000" stroke="none" 
	d="
M0.999998,400.000000 
	C1.000000,267.043427 1.000000,134.086838 1.000000,1.065128 
	C171.567505,1.065128 342.135040,1.065128 513.000000,1.065128 
	C513.000000,133.690598 513.000000,266.381409 512.624146,399.381073 
	C511.519287,396.210938 511.345062,392.490417 509.955231,389.299255 
	C506.102173,380.452301 502.179108,371.583282 497.496796,363.160461 
	C486.178192,342.800049 474.463623,322.658569 462.813324,302.483948 
	C447.197327,275.441864 431.449615,248.475830 415.836945,221.431839 
	C402.813232,198.872437 389.960114,176.214523 376.926361,153.660950 
	C362.350555,128.439072 347.655334,103.286217 333.014252,78.102051 
	C325.885468,65.839729 319.423065,53.137085 308.277100,43.719620 
	C298.700409,35.628067 288.061279,29.673231 275.772827,27.057861 
	C269.598602,25.743793 263.280396,25.106365 256.616425,24.239784 
	C249.003235,25.477739 241.595856,25.926369 234.635818,27.929413 
	C210.788818,34.792374 195.346954,51.318596 183.957855,72.655083 
	C175.237839,88.991234 165.763809,104.928268 156.488983,120.964066 
	C144.853683,141.081009 133.008270,161.076492 121.385773,181.200760 
	C110.739075,199.635452 100.343216,218.214981 89.701569,236.652603 
	C75.403427,261.425476 60.979389,286.125732 46.601429,310.852509 
	C38.185955,325.325226 29.674450,339.742828 21.363211,354.275024 
	C16.857071,362.154053 12.220483,370.013947 8.496187,378.267578 
	C5.357670,385.223053 3.451604,392.734589 0.999998,400.000000 
z"/>
<path fill="#535A61" opacity="1.000000" stroke="none" 
	d="
M0.999998,400.468628 
	C3.451604,392.734589 5.357670,385.223053 8.496187,378.267578 
	C12.220483,370.013947 16.857071,362.154053 21.363211,354.275024 
	C29.674450,339.742828 38.185955,325.325226 46.601429,310.852509 
	C60.979389,286.125732 75.403427,261.425476 89.701569,236.652603 
	C100.343216,218.214981 110.739075,199.635452 121.385773,181.200760 
	C133.008270,161.076492 144.853683,141.081009 156.488983,120.964066 
	C165.763809,104.928268 175.237839,88.991234 183.957855,72.655083 
	C195.346954,51.318596 210.788818,34.792374 234.635818,27.929413 
	C241.595856,25.926369 249.003235,25.477739 256.607239,24.697716 
	C257.017273,35.298340 257.025665,45.517868 256.600464,55.825119 
	C236.895325,56.791016 223.803528,66.729897 214.376526,83.135826 
	C168.933289,162.221222 123.233017,241.158890 77.657341,320.168213 
	C63.936077,343.955170 49.986820,367.620300 36.793285,391.698120 
	C29.622122,404.785309 30.227272,418.741730 36.901810,432.002960 
	C45.866219,449.813782 60.901768,458.060608 80.621811,458.069763 
	C136.099197,458.095520 191.576630,458.075623 247.054031,458.088196 
	C250.381271,458.088928 253.708481,458.216339 257.028870,458.735596 
	C257.023285,469.403229 257.024536,479.620117 256.560150,489.907440 
	C198.673157,489.985565 141.250824,490.165588 83.831566,489.825195 
	C74.643089,489.770752 65.254822,488.215027 56.330162,485.913635 
	C35.313488,480.494080 19.703676,467.582001 9.921801,448.291626 
	C6.047359,440.651062 3.921820,432.123627 1.000000,424.000000 
	C1.000000,416.312408 1.000000,408.624847 0.999998,400.468628 
z"/>
<path fill="#3B4145" opacity="1.000000" stroke="none" 
	d="
M257.034058,55.737400 
	C257.025665,45.517868 257.017273,35.298340 257.018097,24.620876 
	C263.280396,25.106365 269.598602,25.743793 275.772827,27.057861 
	C288.061279,29.673231 298.700409,35.628067 308.277100,43.719620 
	C319.423065,53.137085 325.885468,65.839729 333.014252,78.102051 
	C347.655334,103.286217 362.350555,128.439072 376.926361,153.660950 
	C389.960114,176.214523 402.813232,198.872437 415.836945,221.431839 
	C431.449615,248.475830 447.197327,275.441864 462.813324,302.483948 
	C474.463623,322.658569 486.178192,342.800049 497.496796,363.160461 
	C502.179108,371.583282 506.102173,380.452301 509.955231,389.299255 
	C511.345062,392.490417 511.519287,396.210938 512.624146,399.844971 
	C513.000000,407.687592 513.000000,415.375153 512.625488,423.684509 
	C510.323486,439.447205 503.660431,452.480133 493.681274,463.704346 
	C477.267273,482.166260 455.903534,489.818817 431.742493,489.934082 
	C384.317261,490.160370 336.890198,490.010498 289.463898,489.993195 
	C278.651184,489.989258 267.838501,489.891510 257.025818,489.836975 
	C257.024536,479.620117 257.023285,469.403229 257.489197,458.655701 
	C298.012878,458.112579 338.069336,458.114594 378.125824,458.079407 
	C391.086517,458.068024 404.047180,457.959015 417.469727,457.977722 
	C424.930115,458.011749 431.948029,458.279633 438.923370,457.852753 
	C458.059784,456.681641 474.441345,443.417847 479.960114,425.078827 
	C484.402039,410.318146 480.895721,397.090118 473.349030,384.071655 
	C426.336365,302.972351 379.558197,221.737122 332.698669,140.549026 
	C321.295990,120.792915 309.909149,101.027550 298.455658,81.300896 
	C293.715515,73.136803 288.010071,65.877472 279.010864,61.980644 
	C279.005341,62.004723 279.045929,61.976521 278.865356,61.705383 
	C277.879486,61.151585 277.074127,60.868923 276.194397,60.635048 
	C276.120026,60.683834 276.296265,60.659477 276.159851,60.416950 
	C275.667297,60.093964 275.311188,60.013504 274.870483,59.842941 
	C274.785889,59.752838 274.550140,59.827244 274.361633,59.583225 
	C273.777893,59.265198 273.382629,59.191189 272.667206,58.917694 
	C267.242706,57.724606 262.138367,56.731003 257.034058,55.737400 
z"/>
<path fill="#FFFFFF" opacity="1.000000" stroke="none" 
	d="
M256.560150,489.907410 
	C267.838501,489.891510 278.651184,489.989258 289.463898,489.993195 
	C336.890198,490.010498 384.317261,490.160370 431.742493,489.934082 
	C455.903534,489.818817 477.267273,482.166260 493.681274,463.704346 
	C503.660431,452.480133 510.323486,439.447205 512.625488,424.153137 
	C513.000000,453.647858 513.000000,483.295685 513.000000,512.942139 
	C342.333313,512.940796 171.666656,512.940796 1.000000,512.940796 
	C1.000000,483.566864 1.000000,454.252106 1.000000,424.468658 
	C3.921820,432.123627 6.047359,440.651062 9.921801,448.291626 
	C19.703676,467.582001 35.313488,480.494080 56.330162,485.913635 
	C65.254822,488.215027 74.643089,489.770752 83.831566,489.825195 
	C141.250824,490.165588 198.673157,489.985565 256.560150,489.907410 
z"/>
<path fill="#FFD764" opacity="1.000000" stroke="none" 
	d="
M417.007843,457.894653 
	C404.047180,457.959015 391.086517,458.068024 378.125824,458.079407 
	C338.069336,458.114594 298.012878,458.112579 257.496033,458.204926 
	C253.708481,458.216339 250.381271,458.088928 247.054031,458.088196 
	C191.576630,458.075623 136.099197,458.095520 80.621811,458.069763 
	C60.901768,458.060608 45.866219,449.813782 36.901810,432.002960 
	C30.227272,418.741730 29.622122,404.785309 36.793285,391.698120 
	C49.986820,367.620300 63.936077,343.955170 77.657341,320.168213 
	C123.233017,241.158890 168.933289,162.221222 214.376526,83.135826 
	C223.803528,66.729897 236.895325,56.791016 256.600464,55.825119 
	C262.138367,56.731003 267.242706,57.724606 272.867188,59.144234 
	C273.774963,59.655926 274.162567,59.741585 274.550140,59.827244 
	C274.550140,59.827244 274.785889,59.752838 275.016937,60.084785 
	C275.597412,60.497650 275.946838,60.578564 276.296265,60.659477 
	C276.296265,60.659477 276.120026,60.683834 276.258606,60.990658 
	C277.280090,61.523827 278.163025,61.750172 279.045929,61.976517 
	C279.045929,61.976521 279.005341,62.004723 279.030273,62.330002 
	C283.753265,69.209488 289.419952,75.276817 292.997620,82.394211 
	C324.245819,144.559021 355.091827,206.925888 386.116272,269.203369 
	C405.713898,308.542969 425.453278,347.811981 445.046082,387.154022 
	C453.208282,403.543640 453.455841,420.078461 444.790192,436.350891 
	C438.804535,447.590759 429.410767,454.765076 417.007843,457.894653 
M259.776581,406.217102 
	C272.770355,404.922821 282.630127,394.124481 282.796539,381.005859 
	C282.963776,367.822235 272.976959,357.068359 258.203552,355.132172 
	C247.484512,355.137909 239.189819,359.594849 234.238602,369.149139 
	C229.487854,378.316559 230.206543,387.539185 236.281082,395.886993 
	C241.782379,403.447021 249.284103,407.361511 259.776581,406.217102 
M258.851410,323.993530 
	C273.174652,322.827820 282.756592,312.022003 282.829742,296.607483 
	C282.933899,274.658142 282.857941,252.707962 282.857971,230.758133 
	C282.858002,207.644302 282.926239,184.530167 282.832245,161.416718 
	C282.767426,145.483292 272.363831,134.124512 257.155396,133.837204 
	C241.770279,134.507004 231.505707,144.829742 231.177841,160.271347 
	C230.973114,169.914307 231.134155,179.565048 231.134033,189.212296 
	C231.133606,224.807327 231.093872,260.402435 231.152344,295.997375 
	C231.180374,313.065277 242.270355,324.477814 258.851410,323.993530 
z"/>
<path fill="#FEB651" opacity="1.000000" stroke="none" 
	d="
M417.469727,457.977722 
	C429.410767,454.765076 438.804535,447.590759 444.790192,436.350891 
	C453.455841,420.078461 453.208282,403.543640 445.046082,387.154022 
	C425.453278,347.811981 405.713898,308.542969 386.116272,269.203369 
	C355.091827,206.925888 324.245819,144.559021 292.997620,82.394211 
	C289.419952,75.276817 283.753265,69.209488 279.035767,62.305923 
	C288.010071,65.877472 293.715515,73.136803 298.455658,81.300896 
	C309.909149,101.027550 321.295990,120.792915 332.698669,140.549026 
	C379.558197,221.737122 426.336365,302.972351 473.349030,384.071655 
	C480.895721,397.090118 484.402039,410.318146 479.960114,425.078827 
	C474.441345,443.417847 458.059784,456.681641 438.923370,457.852753 
	C431.948029,458.279633 424.930115,458.011749 417.469727,457.977722 
z"/>
<path fill="#FEB651" opacity="1.000000" stroke="none" 
	d="
M278.865356,61.705379 
	C278.163025,61.750172 277.280090,61.523827 276.333008,60.941872 
	C277.074127,60.868923 277.879486,61.151585 278.865356,61.705379 
z"/>
<path fill="#FEB651" opacity="1.000000" stroke="none" 
	d="
M274.361633,59.583225 
	C274.162567,59.741585 273.774963,59.655926 273.187378,59.343719 
	C273.382629,59.191189 273.777893,59.265198 274.361633,59.583225 
z"/>
<path fill="#FEB651" opacity="1.000000" stroke="none" 
	d="
M276.159851,60.416950 
	C275.946838,60.578564 275.597412,60.497650 275.101532,60.174889 
	C275.311188,60.013504 275.667297,60.093964 276.159851,60.416950 
z"/>
<path fill="#535B61" opacity="1.000000" stroke="none" 
	d="
M258.037445,323.895660 
	C242.270355,324.477814 231.180374,313.065277 231.152344,295.997375 
	C231.093872,260.402435 231.133606,224.807327 231.134033,189.212296 
	C231.134155,179.565048 230.973114,169.914307 231.177841,160.271347 
	C231.505707,144.829742 241.770279,134.507004 257.732361,134.270233 
	C259.538208,141.504318 261.790375,148.299057 261.832275,155.107422 
	C262.136658,204.587372 262.146484,254.071045 261.819855,303.550720 
	C261.775024,310.340393 259.356842,317.114410 258.037445,323.895660 
z"/>
<path fill="#3D4346" opacity="1.000000" stroke="none" 
	d="
M258.444427,323.944580 
	C259.356842,317.114410 261.775024,310.340393 261.819855,303.550720 
	C262.146484,254.071045 262.136658,204.587372 261.832275,155.107422 
	C261.790375,148.299057 259.538208,141.504318 258.161133,134.364807 
	C272.363831,134.124512 282.767426,145.483292 282.832245,161.416718 
	C282.926239,184.530167 282.858002,207.644302 282.857971,230.758133 
	C282.857941,252.707962 282.933899,274.658142 282.829742,296.607483 
	C282.756592,312.022003 273.174652,322.827820 258.444427,323.944580 
z"/>
<path fill="#545B61" opacity="1.000000" stroke="none" 
	d="
M258.931732,406.155640 
	C249.284103,407.361511 241.782379,403.447021 236.281082,395.886993 
	C230.206543,387.539185 229.487854,378.316559 234.238602,369.149139 
	C239.189819,359.594849 247.484512,355.137909 258.613525,355.653168 
	C263.342468,372.842651 263.125336,389.502777 258.931732,406.155640 
z"/>
<path fill="#3D4345" opacity="1.000000" stroke="none" 
	d="
M259.354156,406.186371 
	C263.125336,389.502777 263.342468,372.842651 259.026001,355.793243 
	C272.976959,357.068359 282.963776,367.822235 282.796539,381.005859 
	C282.630127,394.124481 272.770355,404.922821 259.354156,406.186371 
z"/>
</svg>